<?xml version="1.0" encoding="UTF-8" standalone="no"?>
<!-- Created with Inkscape (http://www.inkscape.org/) -->

<svg
   width="32"
   height="32"
   viewBox="0 0 8.4666708 8.4666618"
   version="1.1"
   id="svg5"
   inkscape:version="1.2.2 (b0a8486541, 2022-12-01)"
   sodipodi:docname="leaderboards.svg"
   xmlns:inkscape="http://www.inkscape.org/namespaces/inkscape"
   xmlns:sodipodi="http://sodipodi.sourceforge.net/DTD/sodipodi-0.dtd"
   xmlns="http://www.w3.org/2000/svg"
   xmlns:svg="http://www.w3.org/2000/svg">
  <sodipodi:namedview
     id="namedview7"
     pagecolor="#ffffff"
     bordercolor="#000000"
     borderopacity="0.25"
     inkscape:showpageshadow="2"
     inkscape:pageopacity="0.0"
     inkscape:pagecheckerboard="false"
     inkscape:deskcolor="#d1d1d1"
     inkscape:document-units="px"
     showgrid="false"
     inkscape:zoom="16"
     inkscape:cx="17.84375"
     inkscape:cy="16.34375"
     inkscape:window-width="1920"
     inkscape:window-height="1016"
     inkscape:window-x="1920"
     inkscape:window-y="27"
     inkscape:window-maximized="1"
     inkscape:current-layer="layer1" />
  <defs
     id="defs2" />
  <g
     inkscape:label="Layer 1"
     inkscape:groupmode="layer"
     id="layer1">
    <g
       id="g6046"
       transform="matrix(1.2789119,0,0,1.2789047,-1.1807275,-2.1117295)"
       style="fill:#000000;opacity:0.4">
      <path
         id="path6034"
         style="fill:#000000;fill-opacity:1;stroke:none;stroke-width:0.0836458;stroke-linecap:round;stroke-linejoin:round;stroke-dasharray:none;paint-order:stroke markers fill"
         d="m 3.2551001,6.4946927 c -0.1185618,0.00597 -0.2123902,0.1036626 -0.2123903,0.223759 v 0.8082198 c 0.7937504,0 1.5875008,0 2.3812512,0 V 6.7184517 c 0,-0.1239705 -0.099788,-0.223759 -0.2237591,-0.223759 -0.6445777,0 -1.2891553,0 -1.933733,0 -0.00387,0 -0.00754,-1.926e-4 -0.011369,0 z"
         sodipodi:nodetypes="csccsccc" />
      <g
         id="g6044"
         style="fill:#000000;fill-opacity:1">
        <path
           id="path6036"
           style="color:#000000;fill:#000000;fill-opacity:1;stroke-width:2.95669;-inkscape-stroke:none"
           d="M 3.9988019,3.4112168 V 3.5747041 C 3.9872412,4.690151 3.8575045,5.1442917 3.7283621,5.4433425 3.5930521,5.7566729 3.439585,5.932654 3.439585,6.494547 H 3.6015437 4.8804073 5.0270858 C 5.0270873,5.932654 4.8797331,5.7566729 4.7444231,5.4433425 4.6091136,5.1300118 4.4678715,4.6473325 4.4678715,3.4112168 Z"
           sodipodi:nodetypes="ccsccccscc" />
        <g
           id="g6042"
           style="fill:#000000;fill-opacity:1"
           transform="translate(0,0.90276158)">
          <path
             id="path6038"
             style="fill:#000000;fill-opacity:1;stroke:none;stroke-width:0.505865;stroke-linecap:round;stroke-linejoin:round;stroke-dasharray:none;paint-order:stroke markers fill"
             d="m 3.3946265,1.6588098 c -0.1225583,0.00618 -0.219625,0.1073786 -0.219625,0.2315105 V 2.2515388 2.6163745 A 1.0583339,1.0583339 0 0 0 4.2333354,3.6747084 1.0583339,1.0583339 0 0 0 5.2916692,2.6163745 V 2.2515388 1.8903203 c 0,-0.1281361 -0.1033743,-0.2315105 -0.2315105,-0.2315105 H 3.4065121 c -0.004,0 -0.00793,-1.995e-4 -0.011886,0 z" />
          <path
             id="path6040"
             style="color:#000000;fill:#000000;fill-opacity:1;-inkscape-stroke:none"
             d="m 2.8024143,1.7662968 c -0.0098,5.357e-4 -0.019382,0.00165 -0.028939,0.0031 -0.1529115,0.023221 -0.2444297,0.1644365 -0.2444297,0.3085085 0,0.1365472 -8.843e-4,0.3177565 0.037207,0.4904095 0.038092,0.1726531 0.1178952,0.3426262 0.285254,0.4392499 0.067031,0.0387 0.1633881,0.049938 0.2599326,0.00827 0.096545,-0.041667 0.1868541,-0.1394386 0.230477,-0.3028241 L 3.2127254,2.6778695 C 3.1769818,2.8117438 3.1160788,2.8675757 3.0587295,2.8923268 3.0013802,2.917078 2.9407965,2.9074575 2.9181696,2.8943939 2.7930276,2.8221439 2.7291425,2.6916 2.695444,2.5388599 2.661746,2.3861197 2.661854,2.2148835 2.661854,2.0779059 c 0,-0.091158 0.048862,-0.1652546 0.1312582,-0.1777671 0.082396,-0.012512 0.2289877,0.040475 0.4097943,0.2738853 l 0.10387,-0.082166 C 3.1231214,1.8547713 2.9493848,1.7582622 2.8024143,1.7662968 Z m 2.8323866,0 C 5.4943901,1.7719211 5.3318226,1.8705771 5.160411,2.0918585 l 0.103353,0.082166 c 0.1808066,-0.2334101 0.3279153,-0.286398 0.410311,-0.2738857 0.082396,0.012513 0.1307415,0.086609 0.1307415,0.1777671 0,0.1369776 1.086e-4,0.3082138 -0.03359,0.460954 C 5.7375288,2.6916 5.6741602,2.8221439 5.549018,2.8943939 5.526391,2.9074579 5.465807,2.9170748 5.408458,2.8923268 5.3511091,2.8675759 5.287622,2.8117441 5.2518784,2.6778695 l -0.1271241,0.03514 c 0.043623,0.1633855 0.1339325,0.2611568 0.230477,0.3028241 0.096545,0.041667 0.1929017,0.03043 0.2599326,-0.00827 0.1673588,-0.096626 0.2471623,-0.2665968 0.285254,-0.4392499 0.038092,-0.172653 0.037207,-0.3538623 0.037207,-0.4904095 0,-0.144072 -0.091518,-0.2852876 -0.2444297,-0.3085085 -0.019114,-0.0029 -0.038336,-0.0039 -0.058394,-0.0031 z" />
        </g>
      </g>
    </g>
    <g
       id="g3084"
       transform="matrix(1.2789119,0,0,1.2789047,-1.1807275,-2.2175629)">
      <path
         id="path2983"
         style="fill:#5b3821;fill-opacity:1;stroke:none;stroke-width:0.0836458;stroke-linecap:round;stroke-linejoin:round;stroke-dasharray:none;paint-order:stroke markers fill"
         d="m 3.2551001,6.4946927 c -0.1185618,0.00597 -0.2123902,0.1036626 -0.2123903,0.223759 v 0.8082198 c 0.7937504,0 1.5875008,0 2.3812512,0 V 6.7184517 c 0,-0.1239705 -0.099788,-0.223759 -0.2237591,-0.223759 -0.6445777,0 -1.2891553,0 -1.933733,0 -0.00387,0 -0.00754,-1.926e-4 -0.011369,0 z"
         sodipodi:nodetypes="csccsccc" />
      <g
         id="g3076"
         style="fill:#e7b800;fill-opacity:1">
        <path
           id="path2061"
           style="color:#000000;fill:#e7b800;fill-opacity:1;stroke-width:2.95669;-inkscape-stroke:none"
           d="M 3.9988019,3.4112168 V 3.5747041 C 3.9872412,4.690151 3.8575045,5.1442917 3.7283621,5.4433425 3.5930521,5.7566729 3.439585,5.932654 3.439585,6.494547 H 3.6015437 4.8804073 5.0270858 C 5.0270873,5.932654 4.8797331,5.7566729 4.7444231,5.4433425 4.6091136,5.1300118 4.4678715,4.6473325 4.4678715,3.4112168 Z"
           sodipodi:nodetypes="ccsccccscc" />
        <g
           id="g3070"
           style="fill:#e7b800;fill-opacity:1"
           transform="translate(0,0.90276158)">
          <path
             id="path1992"
             style="fill:#e7b800;fill-opacity:1;stroke:none;stroke-width:0.505865;stroke-linecap:round;stroke-linejoin:round;stroke-dasharray:none;paint-order:stroke markers fill"
             d="m 3.3946265,1.6588098 c -0.1225583,0.00618 -0.219625,0.1073786 -0.219625,0.2315105 V 2.2515388 2.6163745 A 1.0583339,1.0583339 0 0 0 4.2333354,3.6747084 1.0583339,1.0583339 0 0 0 5.2916692,2.6163745 V 2.2515388 1.8903203 c 0,-0.1281361 -0.1033743,-0.2315105 -0.2315105,-0.2315105 H 3.4065121 c -0.004,0 -0.00793,-1.995e-4 -0.011886,0 z" />
          <path
             id="path2998"
             style="color:#000000;fill:#e7b800;fill-opacity:1;-inkscape-stroke:none"
             d="m 2.8024143,1.7662968 c -0.0098,5.357e-4 -0.019382,0.00165 -0.028939,0.0031 -0.1529115,0.023221 -0.2444297,0.1644365 -0.2444297,0.3085085 0,0.1365472 -8.843e-4,0.3177565 0.037207,0.4904095 0.038092,0.1726531 0.1178952,0.3426262 0.285254,0.4392499 0.067031,0.0387 0.1633881,0.049938 0.2599326,0.00827 0.096545,-0.041667 0.1868541,-0.1394386 0.230477,-0.3028241 L 3.2127254,2.6778695 C 3.1769818,2.8117438 3.1160788,2.8675757 3.0587295,2.8923268 3.0013802,2.917078 2.9407965,2.9074575 2.9181696,2.8943939 2.7930276,2.8221439 2.7291425,2.6916 2.695444,2.5388599 2.661746,2.3861197 2.661854,2.2148835 2.661854,2.0779059 c 0,-0.091158 0.048862,-0.1652546 0.1312582,-0.1777671 0.082396,-0.012512 0.2289877,0.040475 0.4097943,0.2738853 l 0.10387,-0.082166 C 3.1231214,1.8547713 2.9493848,1.7582622 2.8024143,1.7662968 Z m 2.8323866,0 C 5.4943901,1.7719211 5.3318226,1.8705771 5.160411,2.0918585 l 0.103353,0.082166 c 0.1808066,-0.2334101 0.3279153,-0.286398 0.410311,-0.2738857 0.082396,0.012513 0.1307415,0.086609 0.1307415,0.1777671 0,0.1369776 1.086e-4,0.3082138 -0.03359,0.460954 C 5.7375288,2.6916 5.6741602,2.8221439 5.549018,2.8943939 5.526391,2.9074579 5.465807,2.9170748 5.408458,2.8923268 5.3511091,2.8675759 5.287622,2.8117441 5.2518784,2.6778695 l -0.1271241,0.03514 c 0.043623,0.1633855 0.1339325,0.2611568 0.230477,0.3028241 0.096545,0.041667 0.1929017,0.03043 0.2599326,-0.00827 0.1673588,-0.096626 0.2471623,-0.2665968 0.285254,-0.4392499 0.038092,-0.172653 0.037207,-0.3538623 0.037207,-0.4904095 0,-0.144072 -0.091518,-0.2852876 -0.2444297,-0.3085085 -0.019114,-0.0029 -0.038336,-0.0039 -0.058394,-0.0031 z" />
        </g>
      </g>
    </g>
  </g>
</svg>
